<svg xmlns="http://www.w3.org/2000/svg" width="41" height="40" viewBox="0 0 41 40" fill="none">
    <path d="M30.2223 3.3335H10.7778C8.93671 3.3357 7.17165 4.06805 5.86979 5.36991C4.56793 6.67177 3.83558 8.43684 3.83337 10.2779L3.83337 29.7224C3.83558 31.5635 4.56793 33.3286 5.86979 34.6304C7.17165 35.9323 8.93671 36.6646 10.7778 36.6668H30.2223C32.0634 36.6646 33.8284 35.9323 35.1303 34.6304C36.4322 33.3286 37.1645 31.5635 37.1667 29.7224V10.2779C37.1645 8.43684 36.4322 6.67177 35.1303 5.36991C33.8284 4.06805 32.0634 3.3357 30.2223 3.3335ZM10.7778 6.11127H30.2223C31.3273 6.11127 32.3871 6.55026 33.1685 7.33166C33.9499 8.11306 34.3889 9.17287 34.3889 10.2779V29.7224C34.3865 30.3411 34.2441 30.9513 33.9723 31.5071L21.2459 18.7807C20.601 18.1357 19.8354 17.624 18.9927 17.2749C18.1501 16.9258 17.2469 16.7461 16.3348 16.7461C15.4227 16.7461 14.5195 16.9258 13.6768 17.2749C12.8342 17.624 12.0685 18.1357 11.4237 18.7807L6.61115 23.5918V10.2779C6.61115 9.17287 7.05014 8.11306 7.83154 7.33166C8.61294 6.55026 9.67275 6.11127 10.7778 6.11127ZM10.7778 33.8891C9.67275 33.8891 8.61294 33.4501 7.83154 32.6687C7.05014 31.8873 6.61115 30.8275 6.61115 29.7224V27.5196L13.3862 20.7446C13.7731 20.3574 14.2325 20.0503 14.7382 19.8407C15.2439 19.6311 15.786 19.5233 16.3334 19.5233C16.8808 19.5233 17.4228 19.6311 17.9285 19.8407C18.4342 20.0503 18.8937 20.3574 19.2806 20.7446L32.007 33.4724C31.4512 33.7442 30.841 33.8867 30.2223 33.8891H10.7778Z" fill="#915AB3" />
    <path d="M26.0556 17.917C27.017 17.917 27.9569 17.632 28.7563 17.0978C29.5557 16.5637 30.1787 15.8045 30.5467 14.9162C30.9146 14.028 31.0108 13.0505 30.8233 12.1076C30.6357 11.1646 30.1727 10.2985 29.4929 9.61861C28.8131 8.93877 27.9469 8.4758 27.0039 8.28823C26.061 8.10066 25.0836 8.19693 24.1953 8.56486C23.3071 8.93278 22.5478 9.55584 22.0137 10.3552C21.4796 11.1547 21.1945 12.0945 21.1945 13.0559C21.1945 14.3452 21.7066 15.5816 22.6182 16.4933C23.5299 17.4049 24.7663 17.917 26.0556 17.917ZM26.0556 10.9726C26.4676 10.9726 26.8704 11.0948 27.213 11.3237C27.5556 11.5526 27.8226 11.878 27.9803 12.2587C28.138 12.6394 28.1793 13.0582 28.0989 13.4624C28.0185 13.8665 27.8201 14.2377 27.5287 14.5291C27.2373 14.8204 26.8661 15.0189 26.462 15.0992C26.0579 15.1796 25.639 15.1384 25.2583 14.9807C24.8776 14.823 24.5523 14.556 24.3233 14.2134C24.0944 13.8708 23.9722 13.468 23.9722 13.0559C23.9722 12.5034 24.1917 11.9735 24.5824 11.5828C24.9731 11.1921 25.503 10.9726 26.0556 10.9726Z" fill="#915AB3" />
</svg>