<svg xmlns="http://www.w3.org/2000/svg" width="21" height="20" viewBox="0 0 21 20" fill="none">
    <path d="M15.3614 3.05539H14.667V2.36095C14.667 2.17677 14.5938 2.00014 14.4636 1.8699C14.3334 1.73967 14.1567 1.6665 13.9725 1.6665C13.7884 1.6665 13.6117 1.73967 13.4815 1.8699C13.3513 2.00014 13.2781 2.17677 13.2781 2.36095V3.05539H7.72255V2.36095C7.72255 2.17677 7.64938 2.00014 7.51915 1.8699C7.38892 1.73967 7.21228 1.6665 7.0281 1.6665C6.84393 1.6665 6.66729 1.73967 6.53706 1.8699C6.40682 2.00014 6.33366 2.17677 6.33366 2.36095V3.05539H5.63921C3.72463 3.05539 2.16699 4.61303 2.16699 6.52762V14.8609C2.16699 16.7755 3.72463 18.3332 5.63921 18.3332H15.3614C17.276 18.3332 18.8337 16.7755 18.8337 14.8609V6.52762C18.8337 4.61303 17.276 3.05539 15.3614 3.05539ZM5.63921 4.44428H15.3614C16.51 4.44428 17.4448 5.379 17.4448 6.52762V7.22206H3.55588V6.52762C3.55588 5.379 4.4906 4.44428 5.63921 4.44428ZM15.3614 16.9443H5.63921C4.4906 16.9443 3.55588 16.0096 3.55588 14.8609V8.61095H17.4448V14.8609C17.4448 16.0096 16.51 16.9443 15.3614 16.9443ZM13.2781 12.7776C13.2781 12.9618 13.2049 13.1384 13.0747 13.2687C12.9445 13.3989 12.7678 13.4721 12.5837 13.4721H8.41699C8.23281 13.4721 8.05618 13.3989 7.92595 13.2687C7.79571 13.1384 7.72255 12.9618 7.72255 12.7776C7.72255 12.5934 7.79571 12.4168 7.92595 12.2866C8.05618 12.1563 8.23281 12.0832 8.41699 12.0832H12.5837C12.7678 12.0832 12.9445 12.1563 13.0747 12.2866C13.2049 12.4168 13.2781 12.5934 13.2781 12.7776Z" fill="#8A7C88" />
</svg>