<svg xmlns="http://www.w3.org/2000/svg" width="24" height="25" viewBox="0 0 24 25" fill="none">
    <path fill-rule="evenodd" clip-rule="evenodd" d="M7.20192 8.23965C7.18663 10.6959 9.33775 12.7288 11.9611 12.7372C14.6111 12.7457 16.7771 10.759 16.7906 8.30781C16.8039 5.79867 14.6733 3.76867 12.0187 3.76198C9.36954 3.75511 7.21702 5.75633 7.20192 8.23965ZM11.9996 6.05402C13.3017 6.05514 14.3407 7.02603 14.3453 8.2456C14.3496 9.46497 13.3134 10.4422 12.0118 10.4465C10.7061 10.4509 9.6582 9.48689 9.64846 8.27197C9.63833 7.04126 10.6867 6.05272 11.9996 6.05402ZM7.13451 14.9374C8.26967 15.7674 9.59555 16.106 11.0661 16.2494C11.0261 16.2893 10.9917 16.3244 10.9604 16.3564C10.9103 16.4075 10.8682 16.4504 10.8243 16.4918C10.6147 16.6882 10.4052 16.8847 10.1956 17.0812C9.32684 17.8957 8.45792 18.7104 7.58706 19.5234C7.36357 19.732 7.20345 19.9645 7.18755 20.2689C7.16451 20.719 7.4631 21.1668 7.93234 21.3794C8.37377 21.5798 8.82672 21.5167 9.20736 21.1658C10.0551 20.3844 10.8978 19.5986 11.727 18.8005C11.9344 18.601 12.0474 18.5575 12.2825 18.7873C12.8254 19.3185 13.3829 19.8366 13.9404 20.3548C14.2122 20.6073 14.4839 20.8599 14.754 21.114C14.9692 21.3167 15.2114 21.4612 15.5219 21.4812C16.012 21.5126 16.5118 21.2193 16.7351 20.7736C16.9393 20.3657 16.8618 19.9309 16.4909 19.5802C15.7989 18.926 15.1035 18.2748 14.4081 17.6236C14.0096 17.2504 13.611 16.8771 13.213 16.5033C13.1564 16.4501 13.1102 16.4028 13.04 16.331C13.0161 16.3065 12.9894 16.2791 12.9585 16.2477C13.7629 16.1578 14.5756 16.0224 15.3176 15.7535C16.1024 15.4689 16.8086 15.0612 17.3959 14.4977C17.7787 14.1301 17.7827 13.668 17.4719 13.1946C17.2 12.78 16.7274 12.606 16.2206 12.7277C15.9599 12.7904 15.735 12.9134 15.5246 13.0642C13.4011 14.3997 10.4949 14.3621 8.37933 13.0031C8.27563 12.9359 8.16736 12.8733 8.05372 12.8231C7.46687 12.5644 6.90227 12.6849 6.56594 13.1355C6.17278 13.6621 6.22284 14.1731 6.7197 14.6192C6.82247 14.7114 6.93604 14.7935 7.04943 14.8755C7.07786 14.8961 7.10628 14.9167 7.13451 14.9374Z" fill="#8A7C88" />
</svg>