<svg xmlns="http://www.w3.org/2000/svg" width="24" height="24" viewBox="0 0 24 24" fill="none">
    <path d="M6.62142 15.3054C9.03588 17.6575 11.7747 17.5034 11.7747 17.5034H13.0192C13.0192 17.5034 13.3968 17.4636 13.5883 17.2696C13.7638 17.0906 13.7584 16.7574 13.7584 16.7574C13.7584 16.7574 13.7318 15.201 14.5083 14.9673C15.2688 14.7435 16.2527 16.474 17.2897 17.1403C18.0768 17.6426 18.6724 17.5332 18.6724 17.5332L21.4432 17.4984C21.4432 17.4984 22.8951 17.4138 22.209 16.3497C22.1505 16.2602 21.8102 15.559 20.1456 14.1169C18.4065 12.6052 18.6405 12.8489 20.7359 10.2382C22.0123 8.6469 22.5228 7.67721 22.3633 7.2595C22.209 6.86169 21.273 6.96611 21.273 6.96611L18.1459 6.986C18.1459 6.986 17.9119 6.95617 17.7418 7.05065C17.5716 7.14513 17.4652 7.36393 17.4652 7.36393C17.4652 7.36393 16.9706 8.59717 16.3112 9.64145C14.9178 11.8494 14.3647 11.9687 14.136 11.8295C13.6095 11.5112 13.7372 10.5465 13.7372 9.86025C13.7372 7.717 14.0828 6.82688 13.0618 6.59316C12.7214 6.51857 12.4714 6.46387 11.6046 6.45889C10.4877 6.44895 9.54643 6.46387 9.00929 6.70753C8.65297 6.87163 8.38174 7.23464 8.54661 7.25453C8.75402 7.2794 9.22202 7.37388 9.46665 7.68716C9.78574 8.09493 9.77511 9.00991 9.77511 9.00991C9.77511 9.00991 9.96125 11.5311 9.34434 11.8444C8.9242 12.0582 8.34451 11.6206 7.10538 9.61658C6.46719 8.5922 5.98856 7.45344 5.98856 7.45344C5.98856 7.45344 5.89815 7.23961 5.73328 7.13021C5.53119 6.99098 5.25464 6.9512 5.25464 6.9512L2.28709 6.97109C2.28709 6.97109 1.84037 6.98103 1.6755 7.16502C1.52659 7.31918 1.66487 7.65235 1.66487 7.65235C1.66487 7.65235 3.98892 12.7395 6.62142 15.3054Z" fill="#8A7C88" />
</svg>